<svg xmlns="http://www.w3.org/2000/svg" viewBox="0 0 187.11 424.14"><defs><style>.cls-1{fill:#fff;}.cls-2{fill:#c49a6c;}.cls-3{fill:#f5c4db;}.cls-4{fill:#a46faa;}.cls-5{fill:#d577aa;}.cls-6{fill:#503b65;}.cls-7{fill:#a34c8c;}.cls-8{fill:#439ed1;}.cls-9{fill:#b99866;}.cls-10{fill:#856aaa;}.cls-11{fill:#d799be;}</style></defs><g id="Layer_1" data-name="Layer 1"><rect class="cls-1" x="0.27" width="186.58" height="270.13" rx="91.61"/><rect class="cls-2" x="77.99" y="279.29" width="31.13" height="144.85" rx="10.62"/><path class="cls-3" d="M468.2,392.09H330.36A24.37,24.37,0,0,1,306,367.72V257.23c-1.87-7.15,1.31-14.36,7.14-17.23,6.8-3.35,13.7.94,14.05,1.16,3.77,7.64,10.36,18,20.53,19.87,22.45,4.15,36.9-37.62,60.93-35.76,25.42,2,35.41,50.73,52.32,48.34,8.35-1.17,13.72-14.29,17.22-27.81,2-3.54,4.77-6.15,7.25-5.8,3.38.48,4.9,6.33,6,10a24.41,24.41,0,0,1,1.1,7.24V367.72A24.37,24.37,0,0,1,468.2,392.09Z" transform="translate(-305.45 -104.85)"/><rect class="cls-4" x="422.63" y="140.22" width="25.83" height="6.18" rx="3.09" transform="translate(417.23 -319.03) rotate(110.56)"/><rect class="cls-5" x="365.43" y="142.24" width="25.83" height="6.18" rx="3.09" transform="translate(405.72 -190.82) rotate(124.19)"/><rect class="cls-6" x="449.26" y="140.34" width="25.83" height="6.18" rx="3.09" transform="translate(300.16 -423.6) rotate(90)"/><rect class="cls-5" x="359.78" y="123.43" width="25.83" height="6.18" rx="3.09" transform="translate(-87.47 -340.24) rotate(48.1)"/><rect class="cls-7" x="380.03" y="121.34" width="29.19" height="5.47" rx="2.74" transform="translate(266.69 -354.42) rotate(97.96)"/><rect class="cls-8" x="391.07" y="126.93" width="25.83" height="6.18" rx="3.09" transform="matrix(-0.63, 0.78, -0.78, -0.63, 453.46, -207.51)"/><rect class="cls-5" x="412.27" y="134.64" width="25.83" height="6.18" rx="3.09" transform="translate(-61.69 -375.58) rotate(48.1)"/><rect class="cls-5" x="434.38" y="132.6" width="25.83" height="6.18" rx="3.09" transform="translate(-55.86 -392.71) rotate(48.1)"/><rect class="cls-5" x="378.75" y="116.98" width="25.83" height="6.18" rx="3.09" transform="translate(-85.97 -356.5) rotate(48.1)"/><rect class="cls-5" x="332.38" y="137.43" width="25.83" height="6.18" rx="3.09" transform="translate(256.65 -267.59) rotate(103.42)"/><rect class="cls-4" x="322.48" y="135.06" width="25.83" height="6.18" rx="3.09" transform="translate(371.85 -87.84) rotate(138.1)"/><rect class="cls-4" x="444.4" y="128.05" width="25.83" height="6.18" rx="3.09" transform="translate(-55.92 -401.69) rotate(48.1)"/><rect class="cls-4" x="404.25" y="115.1" width="25.83" height="6.18" rx="3.09" transform="translate(-78.89 -376.1) rotate(48.1)"/><rect class="cls-4" x="381.24" y="147.34" width="25.83" height="6.18" rx="3.09" transform="translate(-62.54 -348.26) rotate(48.1)"/><rect class="cls-8" x="322.48" y="146.3" width="25.83" height="6.18" rx="3.09" transform="translate(341.99 -148.94) rotate(124.19)"/><rect class="cls-8" x="367.77" y="119.27" width="25.83" height="6.18" rx="3.09" transform="translate(282.6 -324.38) rotate(103.42)"/><rect class="cls-8" x="404.79" y="140.22" width="25.83" height="6.18" rx="3.09" transform="translate(547.16 115.07) rotate(171.06)"/><rect class="cls-8" x="338.72" y="149.8" width="25.83" height="6.18" rx="3.09" transform="translate(-74.83 -315.8) rotate(48.1)"/><rect class="cls-8" x="428.59" y="142.24" width="25.83" height="6.18" rx="3.09" transform="translate(-50.61 -385.21) rotate(48.1)"/><rect class="cls-8" x="344.08" y="126.93" width="25.83" height="6.18" rx="3.09" transform="translate(-90.08 -327.39) rotate(48.1)"/><rect class="cls-7" x="352.23" y="146.3" width="25.83" height="6.18" rx="3.09" transform="translate(361.99 -208.97) rotate(117.76)"/><rect class="cls-7" x="402.29" y="137.43" width="25.83" height="6.18" rx="3.09" transform="translate(-62.93 -367.23) rotate(48.1)"/><rect class="cls-7" x="436.58" y="135.06" width="25.83" height="6.18" rx="3.09" transform="translate(382.75 -371.86) rotate(103.42)"/><rect class="cls-6" x="387.11" y="143" width="25.83" height="6.18" rx="3.09" transform="translate(440.2 -207.55) rotate(124.19)"/><rect class="cls-6" x="363.86" y="125.6" width="25.83" height="6.18" rx="3.09" transform="translate(469.43 18.29) rotate(160.34)"/><rect class="cls-6" x="422.63" y="123.43" width="25.83" height="6.18" rx="3.09" transform="translate(444.94 -304.8) rotate(117.76)"/><rect class="cls-6" x="393.26" y="115.1" width="25.83" height="6.18" rx="3.09" transform="matrix(0.87, 0.5, -0.5, 0.87, -191.94, -292.1)"/><rect class="cls-6" x="344.08" y="140.22" width="25.83" height="6.18" rx="3.09" transform="translate(-80.19 -322.97) rotate(48.1)"/><circle class="cls-9" cx="137.95" cy="17.51" r="3.5"/><circle class="cls-9" cx="46.19" cy="44.54" r="3.5"/><circle class="cls-9" cx="16.26" cy="45.58" r="3.5"/><circle class="cls-9" cx="88.1" cy="7.1" r="3.5"/><circle class="cls-9" cx="123" cy="9.84" r="7"/><circle class="cls-10" cx="55.17" cy="14.47" r="7"/><circle class="cls-5" cx="53.81" cy="31.23" r="7"/><circle class="cls-5" cx="106.85" cy="45.58" r="7"/><circle class="cls-9" cx="84.44" cy="29.2" r="7"/><circle class="cls-11" cx="35.8" cy="52.58" r="7"/><circle class="cls-10" cx="164.59" cy="42.08" r="7"/></g></svg>
